<svg version="1.1" id="Layer_1" xmlns="http://www.w3.org/2000/svg" xmlns:xlink="http://www.w3.org/1999/xlink" x="0px" y="0px"
	 width="100%" viewBox="0 0 512 512" enable-background="new 0 0 512 512" xml:space="preserve">
<path fill="#000000" opacity="1.000000" stroke="none" 
	d="
M488.000000,513.000000 
	C325.772369,513.000000 163.544724,513.000000 1.000000,513.000000 
	C1.000000,453.311707 1.000000,393.622833 1.290950,333.164703 
	C2.066493,333.011322 2.661843,333.569244 3.018969,334.251801 
	C7.928496,343.635529 15.519563,348.086792 26.245131,348.064941 
	C87.903351,347.939423 149.561951,347.999023 211.220428,348.022339 
	C213.555969,348.023224 215.867477,347.371246 217.352676,350.608521 
	C223.206177,363.367340 231.568222,374.405640 242.674896,382.971008 
	C249.134323,387.952393 256.366730,391.981598 263.458710,396.080322 
	C272.969513,401.577026 283.483978,403.744446 294.304596,405.188049 
	C306.518066,406.817535 318.431946,405.971863 330.381195,403.309235 
	C345.624786,399.912537 358.678192,392.275055 371.091980,383.385040 
	C381.446350,393.835510 391.694946,403.969696 401.803864,414.478149 
	C399.901245,419.412079 401.083771,423.756409 403.890106,427.179260 
	C408.268585,432.519684 413.319855,437.308472 418.229309,442.611816 
	C427.786469,452.300812 437.201385,461.707947 446.613922,471.117462 
	C458.621124,483.120789 470.637268,495.115234 482.621338,507.141632 
	C484.490997,509.017914 486.210846,511.043488 488.000000,513.000000 
z"/>
<path fill="#ECEAEC" opacity="1.000000" stroke="none" 
	d="
M18.000000,1.000000 
	C161.356659,1.000000 304.713318,1.000000 448.230530,1.288499 
	C449.151489,2.138504 449.880371,2.749812 450.677094,3.253839 
	C458.909210,8.461422 463.964447,15.668506 463.969482,25.633568 
	C464.019867,124.882515 464.016632,224.131500 463.917572,323.380371 
	C463.914673,326.289948 462.691620,329.198303 461.742004,331.806152 
	C455.054199,331.237762 448.661835,330.970459 442.532623,330.442505 
	C448.647156,326.327911 446.718384,320.404877 446.889038,314.557281 
	C446.956207,235.938324 446.961914,157.785751 446.965912,79.633194 
	C446.966431,69.258232 444.746155,67.033981 434.393463,67.033920 
	C302.750488,67.033142 171.107513,67.032791 39.464531,67.039711 
	C37.634418,67.039810 35.804314,67.134796 33.526840,67.108215 
	C28.253284,67.193512 23.126682,65.979988 18.843403,69.781975 
	C18.346493,67.870789 18.007641,66.247963 18.005379,64.624672 
	C17.975821,43.416485 17.993896,22.208235 18.000000,1.000000 
M282.500000,25.997082 
	C264.002502,25.997082 245.504990,25.996990 227.007477,25.997101 
	C190.512314,25.997320 154.016937,26.058468 117.522270,25.925278 
	C112.653885,25.907511 109.404640,28.391294 108.743614,32.353394 
	C108.319473,34.895599 110.526855,38.417252 112.524178,40.621216 
	C113.730583,41.952431 116.792419,41.955170 119.020905,41.956432 
	C222.007217,42.014812 324.993561,42.007191 427.979889,42.006855 
	C428.979736,42.006851 430.250031,42.396530 430.931396,41.929417 
	C433.517273,40.156738 436.666382,38.532795 438.099426,36.001068 
	C438.974091,34.455883 437.814270,30.596518 436.276550,29.144382 
	C434.379242,27.352732 431.143127,26.132874 428.480316,26.123348 
	C380.153992,25.950466 331.826935,25.997164 282.500000,25.997082 
M79.496712,25.996296 
	C78.172943,25.997334 76.847771,25.958935 75.525658,26.006319 
	C70.132401,26.199600 66.885536,29.346849 67.011101,34.226295 
	C67.130875,38.881180 70.303322,41.838406 75.479019,41.986839 
	C78.454849,42.072186 81.446663,42.157856 84.411354,41.953850 
	C90.102463,41.562218 92.962044,36.876083 91.279007,31.357204 
	C89.519585,25.587862 84.930595,25.963076 79.496712,25.996296 
M27.468761,29.121586 
	C23.914188,36.689659 27.110739,41.991726 35.341393,42.124836 
	C37.987694,42.167637 40.654808,42.282742 43.278973,42.024757 
	C47.480320,41.611725 49.808525,38.902023 50.374805,34.918182 
	C50.928505,31.022852 49.056351,27.393002 45.503193,26.684668 
	C39.681320,25.524048 33.405014,24.051071 27.468761,29.121586 
z"/>
<path fill="#000000" opacity="1.000000" stroke="none" 
	d="
M462.037445,332.107208 
	C462.691620,329.198303 463.914673,326.289948 463.917572,323.380371 
	C464.016632,224.131500 464.019867,124.882515 463.969482,25.633568 
	C463.964447,15.668506 458.909210,8.461422 450.677094,3.253839 
	C449.880371,2.749812 449.151489,2.138504 448.695557,1.288499 
	C470.316376,1.000000 491.632782,1.000000 513.000000,1.000000 
	C513.000000,163.020889 513.000000,325.041779 512.724854,487.831177 
	C511.077545,487.010620 509.800903,485.325928 508.318909,483.846985 
	C486.329651,461.903595 464.313232,439.987427 442.126160,417.753052 
	C438.451599,413.951080 435.124786,410.265839 431.414398,407.018860 
	C426.503693,402.721436 421.199707,399.087921 413.965729,401.626038 
	C403.577087,391.205719 393.324158,381.092957 383.126160,370.638824 
	C387.492554,363.713837 391.701782,357.058929 396.202728,350.607513 
	C397.089081,349.337097 399.089813,348.137878 400.594391,348.115723 
	C413.742981,347.922150 426.902252,347.748291 440.044678,348.092163 
	C449.009094,348.326752 460.534546,340.346436 462.037445,332.107208 
z"/>
<path fill="#D8D6D9" opacity="1.000000" stroke="none" 
	d="
M461.742004,331.806152 
	C460.534546,340.346436 449.009094,348.326752 440.044678,348.092163 
	C426.902252,347.748291 413.742981,347.922150 400.594391,348.115723 
	C399.089813,348.137878 397.089081,349.337097 396.202728,350.607513 
	C391.701782,357.058929 387.492554,363.713837 382.813110,370.767578 
	C378.625488,375.181366 374.805847,379.125031 370.986206,383.068726 
	C358.678192,392.275055 345.624786,399.912537 330.381195,403.309235 
	C318.431946,405.971863 306.518066,406.817535 294.304596,405.188049 
	C283.483978,403.744446 272.969513,401.577026 263.458710,396.080322 
	C256.366730,391.981598 249.134323,387.952393 242.674896,382.971008 
	C231.568222,374.405640 223.206177,363.367340 217.352676,350.608521 
	C215.867477,347.371246 213.555969,348.023224 211.220428,348.022339 
	C149.561951,347.999023 87.903351,347.939423 26.245131,348.064941 
	C15.519563,348.086792 7.928496,343.635529 3.018969,334.251801 
	C2.661843,333.569244 2.066493,333.011322 1.290950,332.697723 
	C1.000000,227.645767 1.000000,122.291542 1.293095,16.771236 
	C5.222242,10.514933 8.980225,4.549227 16.219732,2.072018 
	C16.263622,2.057000 16.078291,1.372092 16.000000,1.000000 
	C16.444445,1.000000 16.888889,1.000000 17.666668,1.000000 
	C17.993896,22.208235 17.975821,43.416485 18.005379,64.624672 
	C18.007641,66.247963 18.346493,67.870789 18.729109,70.187851 
	C18.487066,73.636047 17.660793,76.389900 17.658413,79.144463 
	C17.589149,159.277527 17.599081,239.410675 17.605955,319.543793 
	C17.606775,329.111359 19.749342,331.221008 29.413996,331.221893 
	C87.722923,331.227325 146.031845,331.224701 204.340775,331.224762 
	C206.137161,331.224762 207.933533,331.224762 210.117645,331.224762 
	C209.263641,325.465179 208.490753,320.252686 207.767944,314.624878 
	C208.183060,306.088196 207.818222,297.856110 209.030792,289.863312 
	C217.317383,235.241013 272.747223,197.565399 326.800171,209.528534 
	C376.517639,220.532104 408.201263,263.081635 405.262634,315.467804 
	C404.451019,320.792206 403.747101,325.693085 403.027527,330.703156 
	C416.182953,330.703156 429.226196,330.703156 442.269470,330.703156 
	C448.661835,330.970459 455.054199,331.237762 461.742004,331.806152 
M280.762329,228.178894 
	C242.826035,240.278534 219.293793,279.149628 224.812836,318.212738 
	C229.885315,354.115234 259.919403,383.910065 295.330658,388.245056 
	C318.986084,391.140900 340.073425,385.436371 358.380249,370.837952 
	C386.945435,348.059082 396.387939,310.289856 383.105011,275.809082 
	C367.771606,236.005447 321.939697,214.418961 280.762329,228.178894 
z"/>
<path fill="#FF8C5A" opacity="1.000000" stroke="none" 
	d="
M488.467590,513.000000 
	C486.210846,511.043488 484.490997,509.017914 482.621338,507.141632 
	C470.637268,495.115234 458.621124,483.120789 446.613922,471.117462 
	C437.201385,461.707947 427.786469,452.300812 418.519592,442.427795 
	C422.512665,438.319153 426.358704,434.675385 430.479645,431.201935 
	C436.448120,436.698730 442.280396,441.885590 447.810150,447.376984 
	C466.808685,466.243896 485.695587,485.223206 504.646088,504.138611 
	C506.047699,505.537598 507.616730,506.768921 508.957031,508.398987 
	C507.537445,510.146515 506.268738,511.573273 505.000000,513.000000 
	C499.645081,513.000000 494.290131,513.000000 488.467590,513.000000 
z"/>
<path fill="#FFA95F" opacity="1.000000" stroke="none" 
	d="
M509.107910,508.078186 
	C507.616730,506.768921 506.047699,505.537598 504.646088,504.138611 
	C485.695587,485.223206 466.808685,466.243896 447.810150,447.376984 
	C442.280396,441.885590 436.448120,436.698730 430.459625,431.018860 
	C430.164703,430.665405 430.142212,430.297821 430.428223,430.113098 
	C434.577240,425.973877 438.440216,422.019348 442.303223,418.064850 
	C464.313232,439.987427 486.329651,461.903595 508.318909,483.846985 
	C509.800903,485.325928 511.077545,487.010620 512.724854,488.299805 
	C513.000000,493.354919 513.000000,498.709869 512.742798,504.235535 
	C511.359680,505.630249 510.233795,506.854218 509.107910,508.078186 
z"/>
<path fill="#000000" opacity="1.000000" stroke="none" 
	d="
M15.527336,1.000000 
	C16.078291,1.372092 16.263622,2.057000 16.219732,2.072018 
	C8.980225,4.549227 5.222242,10.514933 1.293095,16.302578 
	C1.000000,11.075478 1.000000,6.150956 1.000000,1.000000 
	C5.683317,1.000000 10.368995,1.000000 15.527336,1.000000 
z"/>
<path fill="#000000" opacity="1.000000" stroke="none" 
	d="
M508.957031,508.398987 
	C510.233795,506.854218 511.359680,505.630249 512.742798,504.703125 
	C513.000000,507.582458 513.000000,510.164917 513.000000,513.000000 
	C510.666077,513.000000 508.327789,513.000000 505.494751,513.000000 
	C506.268738,511.573273 507.537445,510.146515 508.957031,508.398987 
z"/>
<path fill="#B6B1B7" opacity="1.000000" stroke="none" 
	d="
M371.091980,383.385010 
	C374.805847,379.125031 378.625488,375.181366 382.758148,371.108948 
	C393.324158,381.092957 403.577087,391.205719 413.651855,401.776489 
	C411.289948,403.817810 409.106293,405.401093 406.632141,407.149261 
	C404.875641,409.577393 403.409576,411.840637 401.943542,414.103882 
	C391.694946,403.969696 381.446350,393.835510 371.091980,383.385010 
z"/>
<path fill="#C8C5C9" opacity="1.000000" stroke="none" 
	d="
M401.803864,414.478149 
	C403.409576,411.840637 404.875641,409.577393 406.937531,407.299408 
	C415.069672,414.955719 422.605927,422.626770 430.142212,430.297852 
	C430.142212,430.297821 430.164703,430.665405 430.184723,430.848511 
	C426.358704,434.675385 422.512665,438.319153 418.376343,442.146973 
	C413.319855,437.308472 408.268585,432.519684 403.890106,427.179260 
	C401.083771,423.756409 399.901245,419.412079 401.803864,414.478149 
z"/>
<path fill="#5E5460" opacity="1.000000" stroke="none" 
	d="
M405.370361,315.044281 
	C408.201263,263.081635 376.517639,220.532104 326.800171,209.528534 
	C272.747223,197.565399 217.317383,235.241013 209.030792,289.863312 
	C207.818222,297.856110 208.183060,306.088196 207.318390,314.617737 
	C157.988373,315.015961 109.157967,315.023163 60.327606,314.986237 
	C44.507229,314.974243 34.006348,304.430939 34.003582,288.672424 
	C33.990612,214.843445 33.983444,141.014481 33.974205,67.185501 
	C35.804314,67.134796 37.634418,67.039810 39.464531,67.039711 
	C171.107513,67.032791 302.750488,67.033142 434.393463,67.033920 
	C444.746155,67.033981 446.966431,69.258232 446.965912,79.633194 
	C446.961914,157.785751 446.956207,235.938324 446.431793,314.549896 
	C432.398499,315.020721 418.884430,315.032501 405.370361,315.044281 
M154.500000,157.978653 
	C181.830856,157.978607 209.161728,157.980728 236.492584,157.977112 
	C244.577133,157.976044 248.847595,155.048187 248.806595,149.557312 
	C248.765717,144.082001 244.540115,141.259781 236.347580,141.259247 
	C195.018005,141.256546 153.688431,141.249222 112.358871,141.283203 
	C110.213295,141.284958 107.501328,140.908691 106.050240,142.015625 
	C103.638550,143.855362 100.621925,146.683640 100.490944,149.230850 
	C100.359825,151.780716 103.099495,154.856033 105.276543,156.991867 
	C106.413567,158.107376 109.045395,157.930557 111.004044,157.940201 
	C125.169083,158.009979 139.334625,157.978241 154.500000,157.978653 
M148.500000,124.937103 
	C161.825806,124.937057 175.151642,124.954376 188.477402,124.929832 
	C195.431488,124.917023 199.153732,121.926422 199.093536,116.502541 
	C199.035858,111.303207 195.356171,108.253075 188.751892,108.242004 
	C162.600082,108.198189 136.448090,108.195541 110.296303,108.247749 
	C103.944916,108.260429 100.001678,111.662506 100.081825,116.719978 
	C100.162216,121.792137 104.064049,124.909317 110.520920,124.927063 
	C122.847191,124.960953 135.173630,124.937019 148.500000,124.937103 
M60.326466,159.844772 
	C67.037704,153.131653 73.811821,146.479797 80.436356,139.682190 
	C84.343910,135.672546 84.847198,131.340607 81.354622,127.693695 
	C73.064240,119.036972 64.620674,110.511581 55.921310,102.268402 
	C51.527359,98.104866 44.974808,100.024925 42.866898,105.530251 
	C41.408684,109.338737 42.847980,112.338181 45.492561,114.987747 
	C51.460274,120.966713 57.444332,126.929382 63.520962,132.997772 
	C62.485107,134.124573 61.844650,134.870270 61.153385,135.565460 
	C55.751984,140.997482 50.247227,146.330643 44.965263,151.876144 
	C41.387218,155.632690 41.392792,160.138641 44.579033,163.512939 
	C47.826176,166.951736 52.662601,166.971863 56.623386,163.508865 
	C57.749344,162.524414 58.759033,161.406998 60.326466,159.844772 
M182.706924,290.372864 
	C181.393860,283.728943 179.303452,281.908997 172.648041,281.899811 
	C151.828568,281.871155 131.009003,281.874359 110.189499,281.898468 
	C103.892426,281.905762 100.263634,284.798584 100.106117,289.789825 
	C99.943108,294.954681 103.725937,298.139740 110.226936,298.148529 
	C131.046417,298.176666 151.866348,298.090607 172.685226,298.206451 
	C177.902740,298.235535 181.342072,296.353638 182.706924,290.372864 
M242.731842,183.037064 
	C222.761597,182.953598 202.791245,182.801651 182.821182,182.834824 
	C177.825943,182.843124 174.490189,186.358719 174.470215,190.901138 
	C174.449600,195.589020 177.975372,199.058624 183.251724,199.081787 
	C201.894989,199.163666 220.538956,199.079559 239.182343,199.146759 
	C243.693207,199.163010 247.033936,197.591858 248.317810,193.078049 
	C249.618866,188.503830 247.490356,185.398239 242.731842,183.037064 
M43.823406,261.624634 
	C46.423454,262.794495 49.008270,264.937286 51.625988,264.978271 
	C70.261269,265.270020 88.903397,265.170441 107.543045,265.107239 
	C112.794846,265.089447 116.489662,261.694916 116.591148,257.149994 
	C116.696404,252.436295 112.884789,248.903732 107.351143,248.887436 
	C88.711441,248.832550 70.071159,248.804169 51.431774,248.898483 
	C44.032589,248.935928 40.897293,253.826248 43.823406,261.624634 
M97.595711,232.110504 
	C114.716011,232.108932 131.836487,232.150558 148.956497,232.080215 
	C154.283295,232.058319 157.826584,228.727585 157.890717,224.058899 
	C157.955261,219.360443 154.456390,215.958389 149.146225,215.875916 
	C141.834427,215.762329 134.519623,215.839783 127.206100,215.841919 
	C115.404793,215.845367 103.602318,215.759277 91.802727,215.904938 
	C86.715317,215.967728 83.697128,219.301849 83.777626,224.132858 
	C83.853439,228.682968 86.846519,231.741180 91.646294,232.069412 
	C93.301170,232.182556 94.969261,232.102417 97.595711,232.110504 
M190.859756,255.822525 
	C189.655136,250.863052 186.444244,248.761154 181.409775,248.794724 
	C168.418610,248.881332 155.426193,248.774918 142.434875,248.848495 
	C136.717957,248.880875 133.082672,252.193375 133.117462,257.023193 
	C133.152451,261.878784 136.753235,265.119843 142.495682,265.151703 
	C155.487030,265.223755 168.479355,265.226288 181.470688,265.153595 
	C187.598465,265.119324 189.876022,262.947083 190.859756,255.822525 
M102.154808,196.332474 
	C104.548439,197.261887 106.926598,198.945511 109.338287,198.994980 
	C122.324265,199.261459 135.318741,199.160873 148.309937,199.105133 
	C154.127182,199.080170 157.727692,196.010239 157.897522,191.179565 
	C158.072830,186.192886 154.342880,182.816330 148.299820,182.782822 
	C135.475342,182.711700 122.649651,182.689499 109.825500,182.785553 
	C101.460579,182.848190 98.231697,188.088425 102.154808,196.332474 
M298.451904,157.980011 
	C300.615112,157.978928 302.779114,158.014297 304.941406,157.969788 
	C310.872864,157.847687 314.801208,154.547409 314.851471,149.685364 
	C314.901459,144.849396 311.008331,141.359848 305.050568,141.290543 
	C295.067841,141.174408 285.082001,141.183121 275.098969,141.285736 
	C269.117737,141.347214 265.205811,144.759918 265.190338,149.582001 
	C265.174286,154.586029 269.218323,157.923355 275.501404,157.966370 
	C282.822693,158.016495 290.144623,157.979294 298.451904,157.980011 
M77.661690,282.138458 
	C68.861618,282.060059 60.061317,281.905457 51.261555,281.931519 
	C45.916389,281.947357 42.338829,285.226013 42.230885,289.861877 
	C42.119038,294.665344 45.805851,298.057587 51.445499,298.118591 
	C58.920353,298.199463 66.398567,298.040039 73.871750,298.178253 
	C78.374451,298.261566 81.734329,296.761841 83.083473,292.276367 
	C84.453148,287.722687 82.329987,284.605774 77.661690,282.138458 
M43.078831,194.277878 
	C45.587971,195.878525 48.011433,198.671585 50.622097,198.859161 
	C58.889713,199.453201 67.229568,199.188889 75.536896,199.024338 
	C80.050262,198.934937 83.472603,195.317505 83.557190,191.101181 
	C83.645088,186.719162 80.105202,182.974152 75.335297,182.883621 
	C67.193764,182.729080 59.044876,182.708237 50.903736,182.868301 
	C44.528324,182.993668 41.607201,187.038925 43.078831,194.277878 
M218.660568,122.899857 
	C220.833954,123.578697 222.978500,124.700638 225.186722,124.844444 
	C229.831268,125.146904 234.510284,124.998978 239.173187,124.919777 
	C244.819092,124.823898 248.597855,121.592300 248.774811,116.858749 
	C248.957855,111.961555 245.118179,108.422249 239.183212,108.254791 
	C234.522675,108.123291 229.771713,107.696953 225.221191,108.415955 
	C222.266647,108.882774 218.874741,110.560112 216.985672,112.798180 
	C214.549759,115.684113 215.493134,119.399582 218.660568,122.899857 
M347.515991,141.256058 
	C344.693024,141.294876 341.843475,141.102982 339.053070,141.424454 
	C334.414948,141.958801 331.257751,145.493546 331.263123,149.702866 
	C331.268616,154.008163 334.842133,157.709961 339.668549,157.898468 
	C345.143463,158.112335 350.640564,158.118561 356.114441,157.890091 
	C360.909546,157.689972 363.974640,154.482666 364.174866,150.054321 
	C364.386383,145.376328 361.431610,141.913849 356.442841,141.375549 
	C353.812836,141.091736 351.131775,141.280838 347.515991,141.256058 
M207.186691,222.759903 
	C206.328613,218.156174 203.485123,215.901184 198.874954,215.861343 
	C193.570007,215.815491 188.262131,215.754044 182.959671,215.877426 
	C178.041458,215.991852 174.573669,219.327805 174.453156,223.772903 
	C174.328094,228.385986 177.926743,231.959076 183.058990,232.079178 
	C188.030075,232.195496 193.006531,232.155533 197.979568,232.096313 
	C204.146561,232.022888 206.492859,229.826828 207.186691,222.759903 
M64.963860,218.540344 
	C59.361324,214.033234 52.896164,215.211868 47.022930,216.958435 
	C44.858673,217.602051 42.702629,221.998016 42.554390,224.789307 
	C42.351761,228.604736 45.133427,231.578293 49.413494,231.983826 
	C52.049213,232.233536 54.724152,232.128708 57.380260,232.092865 
	C65.685638,231.980820 68.939247,226.757980 64.963860,218.540344 
z"/>
<path fill="#4B3F4E" opacity="1.000000" stroke="none" 
	d="
M33.526840,67.108215 
	C33.983444,141.014481 33.990612,214.843445 34.003582,288.672424 
	C34.006348,304.430939 44.507229,314.974243 60.327606,314.986237 
	C109.157967,315.023163 157.988373,315.015961 207.268311,315.033020 
	C208.490753,320.252686 209.263641,325.465179 210.117645,331.224762 
	C207.933533,331.224762 206.137161,331.224762 204.340775,331.224762 
	C146.031845,331.224701 87.722923,331.227325 29.413996,331.221893 
	C19.749342,331.221008 17.606775,329.111359 17.605955,319.543793 
	C17.599081,239.410675 17.589149,159.277527 17.658413,79.144463 
	C17.660793,76.389900 18.487066,73.636047 19.043617,70.475998 
	C23.126682,65.979988 28.253284,67.193512 33.526840,67.108215 
z"/>
<path fill="#FFFFFF" opacity="1.000000" stroke="none" 
	d="
M283.000000,25.997078 
	C331.826935,25.997164 380.153992,25.950466 428.480316,26.123348 
	C431.143127,26.132874 434.379242,27.352732 436.276550,29.144382 
	C437.814270,30.596518 438.974091,34.455883 438.099426,36.001068 
	C436.666382,38.532795 433.517273,40.156738 430.931396,41.929417 
	C430.250031,42.396530 428.979736,42.006851 427.979889,42.006855 
	C324.993561,42.007191 222.007217,42.014812 119.020905,41.956432 
	C116.792419,41.955170 113.730583,41.952431 112.524178,40.621216 
	C110.526855,38.417252 108.319473,34.895599 108.743614,32.353394 
	C109.404640,28.391294 112.653885,25.907511 117.522270,25.925278 
	C154.016937,26.058468 190.512314,25.997320 227.007477,25.997101 
	C245.504990,25.996990 264.002502,25.997082 283.000000,25.997078 
z"/>
<path fill="#4C404F" opacity="1.000000" stroke="none" 
	d="
M405.262634,315.467804 
	C418.884430,315.032501 432.398499,315.020721 446.369812,315.016296 
	C446.718384,320.404877 448.647156,326.327911 442.532623,330.442505 
	C429.226196,330.703156 416.182953,330.703156 403.027527,330.703156 
	C403.747101,325.693085 404.451019,320.792206 405.262634,315.467804 
z"/>
<path fill="#FEFEFE" opacity="1.000000" stroke="none" 
	d="
M79.956436,25.996300 
	C84.930595,25.963076 89.519585,25.587862 91.279007,31.357204 
	C92.962044,36.876083 90.102463,41.562218 84.411354,41.953850 
	C81.446663,42.157856 78.454849,42.072186 75.479019,41.986839 
	C70.303322,41.838406 67.130875,38.881180 67.011101,34.226295 
	C66.885536,29.346849 70.132401,26.199600 75.525658,26.006319 
	C76.847771,25.958935 78.172943,25.997334 79.956436,25.996300 
z"/>
<path fill="#FF8C5B" opacity="1.000000" stroke="none" 
	d="
M27.730408,28.815662 
	C33.405014,24.051071 39.681320,25.524048 45.503193,26.684668 
	C49.056351,27.393002 50.928505,31.022852 50.374805,34.918182 
	C49.808525,38.902023 47.480320,41.611725 43.278973,42.024757 
	C40.654808,42.282742 37.987694,42.167637 35.341393,42.124836 
	C27.110739,41.991726 23.914188,36.689659 27.730408,28.815662 
z"/>
<path fill="#DAD8DB" opacity="1.000000" stroke="none" 
	d="
M430.428223,430.113129 
	C422.605927,422.626770 415.069672,414.955719 407.227997,407.134521 
	C409.106293,405.401093 411.289948,403.817810 413.787537,402.084045 
	C421.199707,399.087921 426.503693,402.721436 431.414398,407.018860 
	C435.124786,410.265839 438.451599,413.951080 442.126160,417.753052 
	C438.440216,422.019348 434.577240,425.973877 430.428223,430.113129 
z"/>
<path fill="#FEFEFE" opacity="1.000000" stroke="none" 
	d="
M281.147034,228.073853 
	C321.939697,214.418961 367.771606,236.005447 383.105011,275.809082 
	C396.387939,310.289856 386.945435,348.059082 358.380249,370.837952 
	C340.073425,385.436371 318.986084,391.140900 295.330658,388.245056 
	C259.919403,383.910065 229.885315,354.115234 224.812836,318.212738 
	C219.293793,279.149628 242.826035,240.278534 281.147034,228.073853 
M339.053101,331.204559 
	C342.039215,331.197998 345.033997,331.333984 348.009491,331.152771 
	C352.959900,330.851318 356.139465,327.434601 356.011658,322.817169 
	C355.889740,318.410492 352.759613,315.183075 348.038544,314.952301 
	C344.398621,314.774353 340.741821,314.941681 337.249329,314.300751 
	C340.390686,312.161377 343.653870,310.178009 346.642487,307.843140 
	C350.362274,304.937042 350.957520,300.472137 348.447723,296.774384 
	C346.086853,293.296082 341.862457,292.105896 337.917511,294.124664 
	C335.123230,295.554596 332.537415,297.391846 329.348755,298.625305 
	C326.085358,293.397095 321.506958,290.202026 315.239166,290.064667 
	C309.490387,289.938660 303.734650,290.132355 297.204834,290.084259 
	C290.859497,290.463318 286.616425,294.122864 282.646606,298.617859 
	C279.735809,296.808960 276.825012,295.000092 273.965210,292.231201 
	C274.312012,284.120270 273.962677,275.896240 275.255157,267.938904 
	C276.089294,262.803406 275.061890,259.211853 271.043884,256.889221 
	C266.924561,254.508041 263.078491,256.207703 259.922791,259.578461 
	C246.969101,273.415039 240.316498,289.466400 240.842834,308.744141 
	C241.302139,325.566406 247.124222,339.901062 258.509644,351.863342 
	C270.385864,364.341370 284.882233,371.365662 302.516815,372.192749 
	C315.513031,372.802246 327.479492,370.420044 338.726471,364.096466 
	C344.043121,361.107178 345.543793,357.667603 344.338654,352.284058 
	C351.276184,348.818054 351.985535,342.054016 345.815094,337.628845 
	C343.821014,336.198822 341.575409,335.116058 339.605408,333.657562 
	C338.882446,333.122253 338.623627,331.959991 339.053101,331.204559 
M321.657471,269.802643 
	C323.912994,265.785156 323.609253,261.962311 320.038422,259.014679 
	C314.821472,254.708237 310.501556,257.805786 306.480774,261.485992 
	C305.659027,260.789612 305.037659,260.247955 304.400513,259.725555 
	C300.101257,256.200623 295.663025,256.138977 292.372833,259.553467 
	C289.069397,262.981689 289.255554,267.596283 292.982788,271.555908 
	C295.378723,274.101227 297.843384,276.591705 300.405579,278.968414 
	C304.548981,282.811829 308.571381,282.821167 312.758240,278.914520 
	C315.676239,276.191833 318.377777,273.237183 321.657471,269.802643 
z"/>
<path fill="#FADC7C" opacity="1.000000" stroke="none" 
	d="
M154.000000,157.978638 
	C139.334625,157.978241 125.169083,158.009979 111.004044,157.940201 
	C109.045395,157.930557 106.413567,158.107376 105.276543,156.991867 
	C103.099495,154.856033 100.359825,151.780716 100.490944,149.230850 
	C100.621925,146.683640 103.638550,143.855362 106.050240,142.015625 
	C107.501328,140.908691 110.213295,141.284958 112.358871,141.283203 
	C153.688431,141.249222 195.018005,141.256546 236.347580,141.259247 
	C244.540115,141.259781 248.765717,144.082001 248.806595,149.557312 
	C248.847595,155.048187 244.577133,157.976044 236.492584,157.977112 
	C209.161728,157.980728 181.830856,157.978607 154.000000,157.978638 
z"/>
<path fill="#FAFAFB" opacity="1.000000" stroke="none" 
	d="
M148.000000,124.937103 
	C135.173630,124.937019 122.847191,124.960953 110.520920,124.927063 
	C104.064049,124.909317 100.162216,121.792137 100.081825,116.719978 
	C100.001678,111.662506 103.944916,108.260429 110.296303,108.247749 
	C136.448090,108.195541 162.600082,108.198189 188.751892,108.242004 
	C195.356171,108.253075 199.035858,111.303207 199.093536,116.502541 
	C199.153732,121.926422 195.431488,124.917023 188.477402,124.929832 
	C175.151642,124.954376 161.825806,124.937057 148.000000,124.937103 
z"/>
<path fill="#FCFCFC" opacity="1.000000" stroke="none" 
	d="
M60.074257,160.097672 
	C58.759033,161.406998 57.749344,162.524414 56.623386,163.508865 
	C52.662601,166.971863 47.826176,166.951736 44.579033,163.512939 
	C41.392792,160.138641 41.387218,155.632690 44.965263,151.876144 
	C50.247227,146.330643 55.751984,140.997482 61.153385,135.565460 
	C61.844650,134.870270 62.485107,134.124573 63.520962,132.997772 
	C57.444332,126.929382 51.460274,120.966713 45.492561,114.987747 
	C42.847980,112.338181 41.408684,109.338737 42.866898,105.530251 
	C44.974808,100.024925 51.527359,98.104866 55.921310,102.268402 
	C64.620674,110.511581 73.064240,119.036972 81.354622,127.693695 
	C84.847198,131.340607 84.343910,135.672546 80.436356,139.682190 
	C73.811821,146.479797 67.037704,153.131653 60.074257,160.097672 
z"/>
<path fill="#FEDF7D" opacity="1.000000" stroke="none" 
	d="
M182.654602,290.749054 
	C181.342072,296.353638 177.902740,298.235535 172.685226,298.206451 
	C151.866348,298.090607 131.046417,298.176666 110.226936,298.148529 
	C103.725937,298.139740 99.943108,294.954681 100.106117,289.789825 
	C100.263634,284.798584 103.892426,281.905762 110.189499,281.898468 
	C131.009003,281.874359 151.828568,281.871155 172.648041,281.899811 
	C179.303452,281.908997 181.393860,283.728943 182.654602,290.749054 
z"/>
<path fill="#FEFEFE" opacity="1.000000" stroke="none" 
	d="
M243.138733,183.155823 
	C247.490356,185.398239 249.618866,188.503830 248.317810,193.078049 
	C247.033936,197.591858 243.693207,199.163010 239.182343,199.146759 
	C220.538956,199.079559 201.894989,199.163666 183.251724,199.081787 
	C177.975372,199.058624 174.449600,195.589020 174.470215,190.901138 
	C174.490189,186.358719 177.825943,182.843124 182.821182,182.834824 
	C202.791245,182.801651 222.761597,182.953598 243.138733,183.155823 
z"/>
<path fill="#FEA95F" opacity="1.000000" stroke="none" 
	d="
M43.612122,261.304626 
	C40.897293,253.826248 44.032589,248.935928 51.431774,248.898483 
	C70.071159,248.804169 88.711441,248.832550 107.351143,248.887436 
	C112.884789,248.903732 116.696404,252.436295 116.591148,257.149994 
	C116.489662,261.694916 112.794846,265.089447 107.543045,265.107239 
	C88.903397,265.170441 70.261269,265.270020 51.625988,264.978271 
	C49.008270,264.937286 46.423454,262.794495 43.612122,261.304626 
z"/>
<path fill="#FEDF7D" opacity="1.000000" stroke="none" 
	d="
M97.113510,232.110535 
	C94.969261,232.102417 93.301170,232.182556 91.646294,232.069412 
	C86.846519,231.741180 83.853439,228.682968 83.777626,224.132858 
	C83.697128,219.301849 86.715317,215.967728 91.802727,215.904938 
	C103.602318,215.759277 115.404793,215.845367 127.206100,215.841919 
	C134.519623,215.839783 141.834427,215.762329 149.146225,215.875916 
	C154.456390,215.958389 157.955261,219.360443 157.890717,224.058899 
	C157.826584,228.727585 154.283295,232.058319 148.956497,232.080215 
	C131.836487,232.150558 114.716011,232.108932 97.113510,232.110535 
z"/>
<path fill="#FEFDFE" opacity="1.000000" stroke="none" 
	d="
M190.890976,256.217346 
	C189.876022,262.947083 187.598465,265.119324 181.470688,265.153595 
	C168.479355,265.226288 155.487030,265.223755 142.495682,265.151703 
	C136.753235,265.119843 133.152451,261.878784 133.117462,257.023193 
	C133.082672,252.193375 136.717957,248.880875 142.434875,248.848495 
	C155.426193,248.774918 168.418610,248.881332 181.409775,248.794724 
	C186.444244,248.761154 189.655136,250.863052 190.890976,256.217346 
z"/>
<path fill="#FEFDFE" opacity="1.000000" stroke="none" 
	d="
M101.917816,196.016281 
	C98.231697,188.088425 101.460579,182.848190 109.825500,182.785553 
	C122.649651,182.689499 135.475342,182.711700 148.299820,182.782822 
	C154.342880,182.816330 158.072830,186.192886 157.897522,191.179565 
	C157.727692,196.010239 154.127182,199.080170 148.309937,199.105133 
	C135.318741,199.160873 122.324265,199.261459 109.338287,198.994980 
	C106.926598,198.945511 104.548439,197.261887 101.917816,196.016281 
z"/>
<path fill="#FADC7C" opacity="1.000000" stroke="none" 
	d="
M297.959106,157.979996 
	C290.144623,157.979294 282.822693,158.016495 275.501404,157.966370 
	C269.218323,157.923355 265.174286,154.586029 265.190338,149.582001 
	C265.205811,144.759918 269.117737,141.347214 275.098969,141.285736 
	C285.082001,141.183121 295.067841,141.174408 305.050568,141.290543 
	C311.008331,141.359848 314.901459,144.849396 314.851471,149.685364 
	C314.801208,154.547409 310.872864,157.847687 304.941406,157.969788 
	C302.779114,158.014297 300.615112,157.978928 297.959106,157.979996 
z"/>
<path fill="#FDA85F" opacity="1.000000" stroke="none" 
	d="
M78.055038,282.276733 
	C82.329987,284.605774 84.453148,287.722687 83.083473,292.276367 
	C81.734329,296.761841 78.374451,298.261566 73.871750,298.178253 
	C66.398567,298.040039 58.920353,298.199463 51.445499,298.118591 
	C45.805851,298.057587 42.119038,294.665344 42.230885,289.861877 
	C42.338829,285.226013 45.916389,281.947357 51.261555,281.931519 
	C60.061317,281.905457 68.861618,282.060059 78.055038,282.276733 
z"/>
<path fill="#FDA85F" opacity="1.000000" stroke="none" 
	d="
M42.951096,193.921448 
	C41.607201,187.038925 44.528324,182.993668 50.903736,182.868301 
	C59.044876,182.708237 67.193764,182.729080 75.335297,182.883621 
	C80.105202,182.974152 83.645088,186.719162 83.557190,191.101181 
	C83.472603,195.317505 80.050262,198.934937 75.536896,199.024338 
	C67.229568,199.188889 58.889713,199.453201 50.622097,198.859161 
	C48.011433,198.671585 45.587971,195.878525 42.951096,193.921448 
z"/>
<path fill="#FAFAFA" opacity="1.000000" stroke="none" 
	d="
M218.371460,122.624641 
	C215.493134,119.399582 214.549759,115.684113 216.985672,112.798180 
	C218.874741,110.560112 222.266647,108.882774 225.221191,108.415955 
	C229.771713,107.696953 234.522675,108.123291 239.183212,108.254791 
	C245.118179,108.422249 248.957855,111.961555 248.774811,116.858749 
	C248.597855,121.592300 244.819092,124.823898 239.173187,124.919777 
	C234.510284,124.998978 229.831268,125.146904 225.186722,124.844444 
	C222.978500,124.700638 220.833954,123.578697 218.371460,122.624641 
z"/>
<path fill="#FADC7C" opacity="1.000000" stroke="none" 
	d="
M347.994873,141.256226 
	C351.131775,141.280838 353.812836,141.091736 356.442841,141.375549 
	C361.431610,141.913849 364.386383,145.376328 364.174866,150.054321 
	C363.974640,154.482666 360.909546,157.689972 356.114441,157.890091 
	C350.640564,158.118561 345.143463,158.112335 339.668549,157.898468 
	C334.842133,157.709961 331.268616,154.008163 331.263123,149.702866 
	C331.257751,145.493546 334.414948,141.958801 339.053070,141.424454 
	C341.843475,141.102982 344.693024,141.294876 347.994873,141.256226 
z"/>
<path fill="#FEDF7D" opacity="1.000000" stroke="none" 
	d="
M207.219040,223.173248 
	C206.492859,229.826828 204.146561,232.022888 197.979568,232.096313 
	C193.006531,232.155533 188.030075,232.195496 183.058990,232.079178 
	C177.926743,231.959076 174.328094,228.385986 174.453156,223.772903 
	C174.573669,219.327805 178.041458,215.991852 182.959671,215.877426 
	C188.262131,215.754044 193.570007,215.815491 198.874954,215.861343 
	C203.485123,215.901184 206.328613,218.156174 207.219040,223.173248 
z"/>
<path fill="#FCA75F" opacity="1.000000" stroke="none" 
	d="
M65.216751,218.849915 
	C68.939247,226.757980 65.685638,231.980820 57.380260,232.092865 
	C54.724152,232.128708 52.049213,232.233536 49.413494,231.983826 
	C45.133427,231.578293 42.351761,228.604736 42.554390,224.789307 
	C42.702629,221.998016 44.858673,217.602051 47.022930,216.958435 
	C52.896164,215.211868 59.361324,214.033234 65.216751,218.849915 
z"/>
<path fill="#ECE9EB" opacity="1.000000" stroke="none" 
	d="
M343.915741,352.818848 
	C345.543793,357.667603 344.043121,361.107178 338.726471,364.096466 
	C327.479492,370.420044 315.513031,372.802246 302.516815,372.192749 
	C284.882233,371.365662 270.385864,364.341370 258.509644,351.863342 
	C247.124222,339.901062 241.302139,325.566406 240.842834,308.744141 
	C240.316498,289.466400 246.969101,273.415039 259.922791,259.578461 
	C263.078491,256.207703 266.924561,254.508041 271.043884,256.889221 
	C275.061890,259.211853 276.089294,262.803406 275.255157,267.938904 
	C273.962677,275.896240 274.312012,284.120270 273.543945,292.702576 
	C268.136993,292.718323 264.679230,294.904083 263.411377,299.656860 
	C262.205383,304.177826 264.847839,307.076782 268.525909,309.318054 
	C271.327484,311.025238 273.987305,312.964935 276.266083,314.820801 
	C272.163574,314.869812 268.496185,314.748749 264.849030,314.966400 
	C260.208527,315.243347 257.034790,318.661530 257.029053,323.039124 
	C257.023285,327.442841 260.141022,330.840332 264.824127,331.112396 
	C268.467834,331.324127 272.135254,331.128601 275.780090,331.442932 
	C272.918091,333.719147 270.037384,335.623383 267.225403,337.624146 
	C263.013702,340.620880 261.965851,344.901672 264.376251,348.923920 
	C266.728241,352.848694 271.283600,354.067413 275.677063,351.719116 
	C279.194489,349.839081 282.570282,347.694061 286.292389,345.867981 
	C293.906891,354.574310 302.805786,358.172455 314.272583,354.759796 
	C318.778992,351.659454 322.941833,348.608582 327.435883,345.700958 
	C333.067902,348.359070 337.108154,353.792633 343.915741,352.818848 
z"/>
<path fill="#FFA95F" opacity="1.000000" stroke="none" 
	d="
M327.104675,345.557739 
	C322.941833,348.608582 318.778992,351.659454 314.057434,354.524841 
	C302.487335,347.882935 297.263428,338.552124 297.886749,325.529480 
	C298.449463,313.773468 297.990417,301.968506 297.981964,290.185150 
	C303.734650,290.132355 309.490387,289.938660 315.239166,290.064667 
	C321.506958,290.202026 326.085358,293.397095 329.662079,299.250641 
	C330.451508,304.943329 330.927643,310.010681 331.319641,315.531921 
	C331.288300,320.970520 331.341095,325.955292 331.291443,331.358948 
	C329.827545,336.371124 328.466095,340.964447 327.104675,345.557739 
z"/>
<path fill="#FF8C5B" opacity="1.000000" stroke="none" 
	d="
M297.593384,290.134705 
	C297.990417,301.968506 298.449463,313.773468 297.886749,325.529480 
	C297.263428,338.552124 302.487335,347.882935 313.713867,354.574341 
	C302.805786,358.172455 293.906891,354.574310 286.208679,345.540100 
	C284.462250,340.333588 283.083008,335.656281 281.772461,330.518585 
	C281.790375,325.046967 281.739594,320.035736 281.765076,314.565857 
	C282.292206,309.092499 282.743073,304.077698 283.193939,299.062927 
	C286.616425,294.122864 290.859497,290.463318 297.593384,290.134705 
z"/>
<path fill="#716873" opacity="1.000000" stroke="none" 
	d="
M321.416718,270.094391 
	C318.377777,273.237183 315.676239,276.191833 312.758240,278.914520 
	C308.571381,282.821167 304.548981,282.811829 300.405579,278.968414 
	C297.843384,276.591705 295.378723,274.101227 292.982788,271.555908 
	C289.255554,267.596283 289.069397,262.981689 292.372833,259.553467 
	C295.663025,256.138977 300.101257,256.200623 304.400513,259.725555 
	C305.037659,260.247955 305.659027,260.789612 306.480774,261.485992 
	C310.501556,257.805786 314.821472,254.708237 320.038422,259.014679 
	C323.609253,261.962311 323.912994,265.785156 321.416718,270.094391 
z"/>
<path fill="#706672" opacity="1.000000" stroke="none" 
	d="
M331.393860,330.940033 
	C331.341095,325.955292 331.288300,320.970520 331.717010,315.508026 
	C333.829865,315.005371 335.461182,314.980469 337.092529,314.955536 
	C340.741821,314.941681 344.398621,314.774353 348.038544,314.952301 
	C352.759613,315.183075 355.889740,318.410492 356.011658,322.817169 
	C356.139465,327.434601 352.959900,330.851318 348.009491,331.152771 
	C345.033997,331.333984 342.039215,331.197998 338.174438,331.080017 
	C335.328461,330.950287 333.361176,330.945160 331.393860,330.940033 
z"/>
<path fill="#888089" opacity="1.000000" stroke="none" 
	d="
M331.291412,331.358948 
	C333.361176,330.945160 335.328461,330.950287 337.724426,331.019592 
	C338.623627,331.959991 338.882446,333.122253 339.605408,333.657562 
	C341.575409,335.116058 343.821014,336.198822 345.815094,337.628845 
	C351.985535,342.054016 351.276184,348.818054 344.127197,352.551453 
	C337.108154,353.792633 333.067902,348.359070 327.435883,345.700958 
	C328.466095,340.964447 329.827545,336.371124 331.291412,331.358948 
z"/>
<path fill="#8A8187" opacity="1.000000" stroke="none" 
	d="
M337.170929,314.628143 
	C335.461182,314.980469 333.829865,315.005371 331.801147,315.054138 
	C330.927643,310.010681 330.451508,304.943329 329.916992,299.461639 
	C332.537415,297.391846 335.123230,295.554596 337.917511,294.124664 
	C341.862457,292.105896 346.086853,293.296082 348.447723,296.774384 
	C350.957520,300.472137 350.362274,304.937042 346.642487,307.843140 
	C343.653870,310.178009 340.390686,312.161377 337.170929,314.628143 
z"/>
<path fill="#888089" opacity="1.000000" stroke="none" 
	d="
M282.920288,298.840393 
	C282.743073,304.077698 282.292206,309.092499 281.355438,314.557495 
	C279.483063,314.938904 278.096649,314.870056 276.710205,314.801178 
	C273.987305,312.964935 271.327484,311.025238 268.525909,309.318054 
	C264.847839,307.076782 262.205383,304.177826 263.411377,299.656860 
	C264.679230,294.904083 268.136993,292.718323 273.518463,293.182556 
	C276.825012,295.000092 279.735809,296.808960 282.920288,298.840393 
z"/>
<path fill="#726772" opacity="1.000000" stroke="none" 
	d="
M276.266083,314.820801 
	C278.096649,314.870056 279.483063,314.938904 281.279175,315.016113 
	C281.739594,320.035736 281.790375,325.046967 281.358582,330.528656 
	C279.181335,331.037415 277.486725,331.075775 275.792114,331.114105 
	C272.135254,331.128601 268.467834,331.324127 264.824127,331.112396 
	C260.141022,330.840332 257.023285,327.442841 257.029053,323.039124 
	C257.034790,318.661530 260.208527,315.243347 264.849030,314.966400 
	C268.496185,314.748749 272.163574,314.869812 276.266083,314.820801 
z"/>
<path fill="#888089" opacity="1.000000" stroke="none" 
	d="
M275.780090,331.442932 
	C277.486725,331.075775 279.181335,331.037415 281.289856,330.989014 
	C283.083008,335.656281 284.462250,340.333588 285.925232,345.338776 
	C282.570282,347.694061 279.194489,349.839081 275.677063,351.719116 
	C271.283600,354.067413 266.728241,352.848694 264.376251,348.923920 
	C261.965851,344.901672 263.013702,340.620880 267.225403,337.624146 
	C270.037384,335.623383 272.918091,333.719147 275.780090,331.442932 
z"/>
</svg>